<mxfile host="app.diagrams.net" modified="2024-05-22T05:58:06.918Z" agent="Mozilla/5.0 (Windows NT 10.0; Win64; x64) AppleWebKit/537.36 (KHTML, like Gecko) Chrome/124.0.0.0 Safari/537.36" etag="vdcJSr0tzdJYWJsnrQrQ" version="24.4.4" type="github">
  <diagram name="Page-1" id="vN_aIAWxYO9JdiEP0zrf">
    <mxGraphModel dx="2534" dy="780" grid="1" gridSize="10" guides="1" tooltips="1" connect="1" arrows="1" fold="1" page="1" pageScale="1" pageWidth="1100" pageHeight="1700" math="0" shadow="0">
      <root>
        <mxCell id="0" />
        <mxCell id="1" parent="0" />
        <mxCell id="kKGH1V7Vbg6gXXMReQId-1" value="&lt;span style=&quot;text-wrap: nowrap;&quot;&gt;Material A&lt;/span&gt;&lt;div&gt;&lt;span style=&quot;text-wrap: nowrap;&quot;&gt;2.5KG&lt;/span&gt;&lt;/div&gt;" style="rounded=0;whiteSpace=wrap;html=1;" parent="1" vertex="1">
          <mxGeometry x="-1017" y="48" width="120" height="60" as="geometry" />
        </mxCell>
        <mxCell id="kKGH1V7Vbg6gXXMReQId-2" value="&lt;span dir=&quot;ltr&quot; class=&quot;ui-provider a b c d e f g h i j k l m n o p q r s t u v w x y z ab ac ae af ag ah ai aj ak&quot;&gt;PSA receives 2 boxes of Material A , the qty is 5 KG&lt;/span&gt;&lt;span style=&quot;background-color: initial;&quot;&gt;&amp;nbsp;in total&lt;/span&gt;" style="text;html=1;align=center;verticalAlign=middle;resizable=0;points=[];autosize=1;strokeColor=none;fillColor=none;" parent="1" vertex="1">
          <mxGeometry x="-1057" y="18" width="340" height="30" as="geometry" />
        </mxCell>
        <mxCell id="kKGH1V7Vbg6gXXMReQId-3" value="&lt;span style=&quot;text-wrap: nowrap;&quot;&gt;Material A&lt;/span&gt;&lt;div&gt;&lt;span style=&quot;text-wrap: nowrap;&quot;&gt;2.5KG&lt;/span&gt;&lt;/div&gt;" style="rounded=0;whiteSpace=wrap;html=1;" parent="1" vertex="1">
          <mxGeometry x="-877" y="48" width="120" height="60" as="geometry" />
        </mxCell>
        <mxCell id="kKGH1V7Vbg6gXXMReQId-4" value="" style="shape=image;verticalLabelPosition=bottom;labelBackgroundColor=default;verticalAlign=top;aspect=fixed;imageAspect=0;image=data:image/png,iVBORw0KGgoAAAANSUhEUgAABJwAAABUCAYAAADH2i0WAAAAAXNSR0IArs4c6QAAAARnQU1BAACxjwv8YQUAAAAJcEhZcwAADsMAAA7DAcdvqGQAACKeSURBVHhe7d1/jBXV3fjxD1opDUYrBXddKyu1Xe2i0EWa7NdHiGJIJLQWDNE2phjLt5h+Q6Exzz8+6ENo5fGfhhQl32/EUFKN8fEJKdQ8Fr9aV7NYvqsFt6Js7bYWFuuylF/VSkJple/5nDlz75m5M/fO3R0ue+++X2TCnTv3zt47M2fmnM98zrnjTp8+fUYAAAAAAABwlu2Th1fslTVurnqTpXvjfOl0c7UT/9yVPwcBJwAAAAAAAOTqPPc/AAAAAAAAkAsCTgAAAAAAAMgVAScAAAAAAADkioATAAAAAAAAckXACQAAAAAAALki4AQAAAAAAIBcEXACAAAAAABArgg4AQAAAAAAIFcEnAAAAAAAAJArAk4AAAAAAADIFQEnAAAAAAAA5Grcvn37zrjHAAAAAAAAwIiNO3bs2KgJOA0NDUlzc7ObAzCWUP5rg+08urA/Rhf2BxoFxzJwblD2gCItD3SpAwAAAAAAQK4IOAEAAAAAACBXBJwAAAAAAACQKwJOAAAAAAAAyBUBJwAAAAAAAOSKgBMAAAAAAAByRcAJAAAAAAAAuSLgBAAAAAAAgFwRcAIAAAAAAECuxh07duyMe5yo/T9edI9Gru/f5rtHyYaGhqS5udnNARhLKP+1wXYeXdgfowv7A42CYxk4Nyh7QJGWh0wBp0qBoiyyrKfaAvrJJ5/IP/7xDzeXzQUXXCDnnUdiFzDacIGuDbbz6ML+GF3YH2gUZ+tYPnPmjHzwwQdy8cUXy7hx49yzAEJ5lL14G3f8+PGUN9QlLQ91HXD6y1/+Ijt27HBz2SxYsEAuvfRSNwdgtKChVxts59GF/TG6DHd//P3vf5c9e/bIyZMn3TMi11xzjVxxxRVuDqitkZxbNKh05MgR+fOf/yymnWAbuy0tLTJ16lT59Kc/LXv37rXPXX311TSCgZiRlL1//vOf0t/fL319fZHrSVNTk8ycOdOulzKHeqLlgVQfAACAEZo4caLMmzdP5s+fL1dddVXVGdjAaPDRRx/JK6+8Ym/ovvXWWzI4OCgHDhyQXbt2yS9/+UsZGBiw2Rd/+MMf5G9/+5t7F4CR+vDDD+Xll1+W3/zmN5Fgkzp8+LC88MIL8tvf/tYGpYB6QsDJ6pOnTCVx3pN9br6o70nz/A9fkuNu3jrykqyZ95R5lzouL/3QvEbfH5mC5fb9/vNuXSXPe39blz0V+SjB34g+l/Q6AABQf1w9pDCtkZeOBEuOd63xnjdTvE7S91R0eaQuE19vwvL4+mydI6zjBOKfYU3X/ytdr04l60I90WDTr3/9axtkuvbaa+WOO+6Qu+++W5YuXSqLFy+WKVOmyKuvviq///3v3TsS2Dpy9LjQump6nTVejy4e+/bY9o9Xe6xHj03qwmgEeoNCMwe17JWjr/nTn/7k5hLEy5+Wn/g1wk1ruo6XXl9c+Sp5PnLdAKpDwCl00zJZtr83chHTQvuMmOfdbOj4W93m9f3yjCmoIpPkln/vkq6uLtn6wByZ88BW+7ir6y5pD14uyzYGy+3077eYd8Sf3yqr969Iv2Ae6ZVumSP9W6nIAaixeOWl0KBMaMja5VvkMb/BoHQdNERHrO/J2HY1tFIYXjvsjYx4pdBUNLVSqfS19nGZyqey6yk8X/o3EdAGgnalCyfN+ggf6x1onfzl/pSc/bRMNoZ1hWfmSvedxYZ1sW7RJRunrZMNbl/ZfblCiu/T5bIidhx4601cXp4eD0tenStbvXWsnfc/5K5wffd49RmvjoP68vHHH8s777xjuz90dnbKrFmz5DOf+Yw9Xl9//XV57bXXbEBKnTp1yv6f6qbVkePlrrBCXEKDTUuk+8bi8R0c++68M6VZ5uw/VLh2HB/qlzmm/t1bOHz7pHfLMulIXT9QHzTQ9O6777q58jS7MCyLUaY8/Z9umftMsex1fdsUjva73PxG26oNrwdr5wVna//64rdfI9cdc90I6whAtQg4FTRLx43+RcwU27e6pe36DjcXOi69r7bJnd+bK/Jqb04NqEnmb8+R/qHktdnPsWSVmEuw9FLxB1ArGii6M1p52XpjtyyxwaP2lAbnPXLvxjZZ93zxZNr3/DpzDqMhevbNMY2zMjcvQuUqn31PmWrlRrdcp7VyyxT3PkRo4/ztt9+2lX+946xj3fzxj3+089r9QSd9rNkgO3fulN/97nd2XrtE6PgcZU3pkLmmYX0o4Zrffv0y2fn+kHlkGhdbN5uyV2wgqPZv602sZ1IDhZWWR+iNN9Og30ggqeFpF55Dhw7ZcZo+//nPF8aJ0TGbdOyY888/3x7TuXbn6dsh62S1rHINX2vKLbI2vIZoOSjUfV39e0mbbN7jys+RQ9J/T0fk+Afqjd6s0HGJszp69KicOHHCzfmGZOiVNrnsLFyzi9cdoHoEnDzN1831soiCC1vJXRO9OE4zF7fIRbC8zStK7yBH6d8SmXtdUnWuT3Y8pJ9Dg1Ii3W8RXQZQGxookgdWRQIOk+attRkWO8q1l9sXFBu0NlN0Y5k73MjT3O9tFFkR7XJSDZtBcDmDmGehDfAvfelLtuvRl7/8ZdvdaPr06Xb+8ssvt5M+1ud0mb5G56dNm+bWUIbWNVIaDn17Nsuy67VAaeMiKbtjklw2bacMpdZPKi33HBmSnTTox4SLLrpIvv71r8vNN99sg0y+CRMm2Dqsdq8LJ32tvmck7Pnmxo7SYGYhs8k7Vm22f7M0t3fIMpf1ZHsccL5CndOMVx2/qRp//etf3SNfu9ylVQBTVqvpZrrzoSWFdmpy9mtwc4O6AYaLgJPPDyLphU0DS8GSgmJFLwgA+Xfx0/hd6sL0RVUMRG0Q+V7KXeS+XtnsKnuTrpsr8tCOYTckACC743Jo/5zEQHjz5ekZmYFJcssSvUP9UpDefSvN1dpxFc5hjrcwad4qmfuqqXzSBfIc2GwbCrZeYLvJFTOX/AZB7/XluigBo8Ar62RJeCzHxlyqlmZW2IymI0MiNjjVLh3Tgrr60PtpN2uBMcplMHfsCcpflm5wkS512gXPKV53gm6vfhsWqAYBp4igkaRZRH3PJzWStK94MVC05KGdIlti4z5VIQxEbbwn/U6jBrhky4qgwN+5TnaaCqnf7Q8ARiWb5bRO1k27ky5ZtWYqnDrewvAG0nXjEn5PZEMOjcVGpmPeaBc57Van3eX0Z+T37dtn599//3076WN9Tpfpa3R+//79bg1x/lhL0W5yYYNAx4osBnubpfmmpDpBECxuTi13Wpfxlr8yJKkdJTTTZAT1HNQP7SqnY8joMapd586cOeOWFGV5jRUZwyl6LPsmNbfJzqThKTSzbtpl5mxkuIyml/b0F4JL7ddrXf0lcxyfne5DQC1dcMEFVWcLfvazn3WPkrV/W8veRmkbwfAvfiCKYBNGgoBTnLmwtb26QZ7ZP1c6Yhex413PyOZ7/LEtNFg08gBQ+7dTukCEYyd4f69ro7vTAwBnVdCVIakb79D7O6WtuVLlIxibjhTsPGXsBmW037pa+kfQtc6Oo2KuOVsfiI5tiKJrrrnGdpHTbnXaXW7OnDly9dVX2/mmpiY76eMvfvGL8rnPfU6+8IUv2PmvfOUr0t4+vBSlIANtgxt/SW+SmTpBbD/3PbmkTKD3uLz0wxWmLhMub5cOU48JfgQlcLxrg6zTYJbOmOPgTrN8uBlzqA8aSNq9e7f9Bbo9e/bIr371q5LAaJbXVE1vTJijrTAIvtKxA1f0y+rCTV89FrvNP69ebuvq3YzfhIZw3nnnyaWXXurmKps8ebJccsklbq4M7SXjHgLnEgGnEpqqu9Ol7fqCcZaKF8CArdRX+PU4fwyn5G4K7bLAVOpXxJbZvukPLIheTP2xUYzK6waA4dHzmzwUNm4D+ktnK/avlgXU8mvOdi3xrzemYbbhIdMcSwosTLlFVul1ZWu/tLmnqqfXPXM9RCK9K61j3SRNn/rUp+wUzmuDwl+u7x0e1101/AU77T7hxuwI6wJ20HevW0Skq57rGuEv10HEbTdK9xr7i3TeIOF6p9z+sl1hHfwMfaPRAYj9X8jS4JIGk/QX6kJZXlNJaZ1VMyqjx988+0MV/jATwRAWO8VlPFkahNopbXaIC6D+tbS0yFVXXeXmytMbFxdeeKGb82iwNixHOmnX7Aw/+BAZw4msZpwF444dO5aSDxto/48Xpe/f5ru54cuyHv0p1ubm7HfDdUT/HTt2uLlsFixYUFUUGUBtVFv+MTxVb2etwNjuvI52lYhVYPRn05PGldHg1AZZRSp2GdXuD92mtju3NUdWew2zvifXyKFb/YaaZrMUx14o3R998tS8Xunwurzovlyxxc0YmlI/lvZfXuch/dU6pVlN2vVOuyBpRpQGm4BaqOZY1i6fL7zwgg0ihfSX6m688cbCMZvlNQCGfx3RgcNfe+01GRwcdM+UmjFjhlx33XX2hgZQD7Q8EHACMCrk1dBDeSPazn1PybytzSUBJwwfx/3oktf+eO+99+Sdd95xcyITJ06U66+/noY5aqaaY1mzlHp6euTAgQPuGZGvfvWrka6fWV4DYGTXEQ3o9vf3S19fn5w8edI9K7aL9syZM+16x40b554FRj8tD3UdcPrkk0/sT0lWQ9PYNbUdwOiSV0MP5Y10O9sMm1iXGwwfx/3owv5Ao6j2WD516pTtMnf8+HFpbW2Vyy+/XM4//3y3NJDlNcBYl8d1JN7GHT9+PIEm1CUtD3UdeYmPiZBlItgEAMM3ad5a6SLYBAANZcKECTJ9+nQ7+P3UqVMTA0lZXgNg5OJtXIJNqGdEXwAAAAAAAJArAk4AAAAAAADIFQEnAAAAAAAA5CrToOF5yXvQcACNg/JfG2zn0YX9MbqwP9AoOJaBc4OyBxRpeagYcKolCigwdlH+a4PtPLqwP0YX9gcaBccycG5Q9oAiLQ90qQMAAAAAAECuCDgBAAAAAAAgVwScAAAAAAAAkCsCTgAAAAAAAMgVAScAAAAAAADkaty+fftGza/UAQAAAAAAoP6NO336NAEnAAAAAAAA5IYudQAAAAAAAMgVAScAAAAAAADkioATAAAAAAAAckXACQAAAAAAALki4AQAAAAAAIBcEXACAAAAAABArgg4AQAAAAAAIFfjTp8+fcY9TtS6ert7NHID6xa5RwAAAAAAAGhUmQJOeQSK8loPAAAAAAAARjcCTgCQoqenRzZt2uTmslu+fLl0dna6OQAAAAAYewg4AUAKDTipaoJHw3kPAAAAADSaug449Wx+Wub2TpAnHlws32xyT4befFHGP35UFi2cJ/+1IL7wXNsnD68YlJs3zpfUJunhXXLHjw7L7UnfDUBNjOmA06Htcm/nKnnezapbH9ktj31jiptDTb3xqLTu/BcZWDXLPSFy5Bf3yuyV18q2ge9L+OwbG1pl8Xo3Y90qG3oek0WXuVnk5j9/9LTsv+1bcv9M94SjdZP1LV7dw9VHrKZWOfjgDdKsj/3njbXfLV3X0I5tMvW5C6U7Xl+wdYQBCUbZjNWDIssCxbrQYfO5u2Tp4eD5UNLfDsRe739+Fftb8TpX8PlPBTOx9wZ1ODfjlKuzxV+f9JntawZjn7FA6157RVK3s/uc8e3plF+3Cta/xj6eHN1nSXU6f9vFt2uNPbziafe5Y8p+rvTtGVe6r2PbJ1YWSpYbdh0yQ04vm+6eCUT3XfIx5P/96HJ/n1VZBmP0b7w8u/K2qAsJ55Bwn1xptsdKuSG1nI6Uvz/j+zLpGPD3bfp5bPSKH7++st8n6ZySJGFfJm5Xv3x2xMtZelmPv7f0M0evIZHlkc+WdN4N/m5vmetCQP/GLpHlFbZF3Si9Tpe7NtaDOv+VugmyqOmU/PyNWM3J6Nl91Cyb4OZqQwvd+M373NzIDOl3MsdV0ncDgJpYuEF2DwzIgJsINo0ibzwaCza9IY+2tspi2VbYX3badq9MJdh0Vtw0e4Ks2R2/5u+Tl3snyO2zXMXQNqTFNNS+Jad1ChvvWtF+dqIcLDzfKr2Pb5P/9C75WqeYOnihrHXzRaYSbhsa4Xub5Oc/elGCULejgYJw3WaKVlS1Yl9clvS3Qz2bu2xQLXxtd8uATC3Uc0yleNOAdJgGRLB8hnQ8t6u4HvPdg4Z60nsD2vgI1x28v0seftMt9Jl1aWO+8Fr7mf3vrBX0p2W9aRSn3tp8c1B6Tb2wZJ/p5xxsK677uxfK0sj2zLDugnDbRoMTiXW6JtNod9/lXOf/3+9t10U2sBDOlwmCpW3PFP6+PrjwI5lrGohDukDLgl9G7BQP7phyNWjq/L2D0ePcvHeL3OC9L3YMGrZBrEEK95piWdD9GjRm7bKqymCN6LZZkVw2yxru+3yxc0jpPjmLNOAR2Vcq+RjoXBZ8vu4O90SdaV6wuLCN9TtoYCGcLxc8q6qdGNmX0fOsBrz88mGnWFC33Lmz8nm5S34+O+k76XXMu37Ez7v2GO43x0Jt2/I+3Tbjw/NUFYb7vpBed/1tplM9B5tUnQecTknH7FaR3e/GdqpW+CbL7bPdbAY9m0d4YjbsSS9eSIflsLyyW+T228zBVfLdANSKZimN2a5xh96T56+eKoSYRiHNPlssscymxfLj+7ZFMqCsWbMKr0G+mmc1JTSAPzAV8ya5ydYNTWX72Y/kiQcTGmoabPAb801Xye1Np2R/eME3le319k5+i3vCYyr/azraindyzboeMQ349TtcJWbopGxvuTh7tkz8b3u0XuM3ejpnTxYZ/MDVS47K/sOT5ebC8ulyc0dxPfbG38IZhe/euWyGrI1vrwh9v0jvYEJlbOb8aOOr6WLpkI/kQPjSN/faCvp/fW2ie6KUfp6O29pKP4NZd6TuNrNF1la57vIas06Xuj0zaF5g3nfYbBfdxnq8drSUD2boMd/SJvd1HJWX/YCkOfbvjzTEJsu0eDnSrLSkuvnhd+Xn5vi9L3y/LUdeA75cGawVG5TMkLVhGv53hOVfZX1fPUk7BsakkZxTpss9C4vBowODp2Tt7PJt13Lnzkrn5aUtM5KDJbo/m1rlnvD9Zl3d3r7t+e8ge+uec1j8bDAwQ+ZpPIaQ9X3JDpt94t20iouX9TpR5wEno8VUlLTg+dveVsZa5CY3G7IRxxVPF6YguhvcuZrbe0qWmv+LzxtmpxZf70dsNSq7S4bC5S6KqesvHgTBepPfX4EWUDEV1pkJ3w0AMIa9IY927pAFPcVgkz736/W3yoY7CC3VlA3URBs/9q7z7KuCiqY2aPVanrnRN0GmhTVUbTBWcQOrueVC2T7od0mqgmt4FwNHFRSCWRog8r9/cLMvWI9WmkU6Wvwvr8EArzFSIpYdVsbQjn7TWPG2rWmslL0DrMED+9ninznNhXJl1nVX0oh1uqq3ZxnNE0sDtxEauD1qG8Ua8CybUaXb2juWI+UxTgNdTRPlSjerIuWoyjJYnnYN8toEkUy/2DI3BW0RXVZsP9ieFN5rtM1h2zaPH5Xtz3UFz9t1R9+X+vcj7RwzDScrI7aOsA2ln7XQnjLsZ/fXr+/L/PeqOAbGghzPKVe2VMhSrKKsx8/LGqhKC2YNDX7kXUsC+lnCGw6dy3IMmKYco5b5fnd4y4LJBZD0fX5Gb6Rdr+tJiSFE3mfE/kYYK0gqz+bEY7ZDcu+t5LKuop/ND0jpex5+M1r+I9+/Ruo/4KQFbnY0pTDtAD/Q4qVMF9L+muSbD86TJ5qKKeY2WqsHh5fiG0n/VYcHZOruFreupCjmUbnSS0O37/cPvjL08y+yF8jS7wbg3Dhx4oQ8+uij8p3vfMf+/+GHH7oljenIe2+LrF8sra2tbnpU3nDLcK4clO3/a7G8/chD0TGZDh2Ut+Vaus7VnF6j/cq6u+scBkxcptEBr1LpVwQjwgZElgq2ZuD09nt3VE1l0hv/xlbke/cW/mbpDa9i5dhOm0QeydRdptjoC3UumyfTng3XFR+b0gugFUQzqdY87n0O+/4yjQyv0q5jyFRzB1kDD2EWTaUGq200Vcq4qUIj1umq2Z5JIg1Tm1lk6si6b5MCEH5A1B778eCU15iy9fLiMajZGx0tR73GVqw3Q1ImYCGDLy/6+YLxb4I2gWlzDO71Gp1etz4zabeqxLF7TCPWjiHmXqeTBkI1m+LgwgnFrlglQTJtjEb/RvAaPW9oBmZxfVVnZWjDOtJluNgtMRrICILJi+SkHHDP6HkqKBcZVDwGxpaRnVP2yZbnillNzQtusMejlo+k61PFsp56Xg4ydaaJH2yJXosWtUx2j4qGfeMkTZlj1JaNSLfwMB5Qeh0a2rHLZmsVyoqZ7p+ZEkOIMOXM7zpoJnsDI6U8K80G1m6Pus384FBaWY92wSvtmr7mcb22ur+T0HW4Fhog4GR2gFbuCimF2sfXS9HzdM70TsI27S9dz38PiHip4EH6b/FEafvpfy1+UvdNN3/PPTT0rkk20Tt89rs9t3dMn1iB0eCSSy6Ru+++Wzo6OqS3t1d+9rOfNXTQaco3HouMBbT7kbdlMUGnc2v9Knnvf26Ta1fOlkcr7AgdPDwMFt77iyPuWeQt0q0uKaOpd683xsU8uX130hhFruG3PGtjb7rcb8e7CCvxgzJNK6Gu8u6PCaKTveEVqegXK8d2Wi6yMsN4L2GF269Q2+dMQ7DbVtSPRm/MZRAdw6lFXo5VsCNsN6HgtY+YRkxJ8CCVBgK9biMlATuPaTyt1HGncsxsabw6XRXb0+MHF6fubooMRh4eswdnH5ap+hrvBq3f4A2z6grdRy1THsJjaPagXX96YythvLOzLd51yJwjvrk8aTiQCjQTLOyGWA0XrCl0HSwIuh+mBiv0xrrbX3ZKuGluAx9eWykIHgYBEHtuDIN3tudJm9zXEmbIBMdQNAMyXeVjYCwZxjklsi/jg39r0ETLR3B9ipafDGW97Hn5lCx9Vm9ouPL3Xan6GjFS5Y7Rath2/HACnSXl3ylbnsNz2gwRe94sc60z1yzNQCuW76DLpN81Pf797+soU+7PkoYIONm0dhmQLaaA6F2T3pSIebRLXfFXKdIUUtYKr/dTwb1060TR9Lbor2+UoQemf/fRjt4/wnRlALm46KKLxlTQyTflGw/JhoVvy8FD7gnU3n3b5PuzZsn3t/2r/HixF/y7bKpcK9F9M2tVGCi81T2Ds8LrVqeNopLuOx1+gEbvRkcrgjbYZBsAVXYf0HGHwkr8xvlypc3kSF6BvYNdritbhgq41p9skMAPxGhwRp+zGSVBo0UDBisLDcGkcaGSsp5CGkjLli2jAYrurJVm2+D2Ax5an0t4r96pt4OxZ8n2yqje63Re9kIh+6jC9vS7ifiBn0hwMSWTJgg86Vhfe917gwavn7Gnv4i1PS1YY8qFZgD4x9Da73r705ZXrywkZTNlGP8s7TumSlqnu4ntZzPY7yfRoG6BbdjfILLJ/e2MvSasWNfBQFBmgyCBrjMWiIsPGp4ShE0679gsFb2x7xrU2ujXoEUxQyY+/ls5VR4DDcRvtxayj8qeU/R64p7392dsXyYeX2HgSc/B4cDfWc+dTul5eUL0RooGrLzkjaRspqSsp6iU71hG6jGq33m5ZvyE69NMoRuSr8X2mhvcFNHXpmYrJ0kq/5nKcxB4Omiuz0s3lQvUHQ0yRN2kv3pYLlNMsw9rrTECTq4St2b3LnNS8tLZPYXKUqHAmQuaW5YmeudNp6wVQg02xUaYNwU4C3tSjv3d+MUTwNnV09Nju84lTT/4wQ9ssEmNraDTe/Lec+4hzq1Z35dt9/1YFm8IQ05XyBULn5cdr5PJVHtl6h96B7Ns95ygq0uWn5UvL7jjnR7I0cade5hCux6lVlDffLEkI8VKGJy8OAaOjkOhN4T9P6yfo/zNOtsdMOcuTTYQ6Hcn0snUyaINVu32kOEnxqtU93U62yhyn93t/0rbM/zVMJ2Gd1xrBot7aLMGY4EPrb9nzPTxx4QpYTMM/J4LwfFXucE7jO+YdEyHQSD9oQH3q2x2KptdF2ajfEu6pdgtr6LY9/QVMiKHmX2StH2Dbaj7UYPOen6KdYezGU8Zu62O8BioZ4V9Y6awu1X5c4qX7Zepm3QC3UfuYbZzZ5pgLKKkH6NQNmMoVi6CLrCVTsDVf8f0Y9Qw1zH/O5Yfry/822nZyilSr2nZyrPNFnSPE8WDwzqVOY/odq61Bgk4uZ3RO1B+DASvYmT7j7vHgWihsFH4yE87Vq9YaEyl8tn0SGOBS4uLR/yD7za2+ysDo9nHH3/sHjWOI4eiwYsjv3hMfrxwgfwL4wSNCrNWbZN/Xb/Yda2bIose3CCycjbd586B1PqHl30dCMbOCOoGwY2p/beNNNgUBK38X60bMg0xX3wg1xK27iHFbhM+Hf/i2YmlwSZlB3v2u1cEdZ2wIt/5tdZIVw8dq6Z8IzPYPknjuvTsiDWE7WfOMsC4rjPhRqS90x42WPWOeb9MyznY1Jh1uizbszrx4zXctxpAtcNblBwPQSBDsyi0S2d0O8bGp9HP6Xc3soOKu6Cn7Vridc0yf3dl0ncbKbtt/POAKSebit/LdhcLFlQlnqWQGjB2WZgVu6BpeXYPs9K20nZ/+8a2oW1LPdsvvYUMK9cd7tlsgT1V6RgYU3I/p5gyFNuEwfVC91flsl7pvBzs/+Jrius2Zs6QJ/zro45plPDdRqrSMaoBvOoFN1SK0gNrpeU/WbE8l+4TLQP+zZ1IWXf1jGJmcan498927cxXwwScghOqpA5AZ8dg8tIxV0qbPFHY1k3yzds0wBQssxFLTZ3TaL97vZ0yR/6j6xu/YpfIba0VT+T2opNUGXMXC7rVAbXR2dkpP/3pTxOnn/zkJ7ZLndL/tYudju/UcF5/wBswvFVm/98Fsvt/L5IpbjHOtbBr3b2yXbvSXbZIHhsIxneK7LeVzwcvx9mTWv/Qu5fhGAw6BQP32gCTbfhGx7UJpyx3TYtdelw2tX83842wi0wwlWYnxQYNdwOalga+3M2y+Fgu9j2mPqTZL5GxpILPUrhDbJcX61F2gNTYXdfo9w+2T9Id5ivNZ4l8hqzZSHb8jKRgmx+00BuQsW1ip5ENrNqQdboM27NqseO1uG+jY9X4bCNy97siLSej9XRzDEUyBmPH4Hg7SHYxK0IHvQ/HrQnKwciCjvHyHGQsaFaEfx7oivxUvD9oc2FK6l6jwV/vNVquHymsw2vjlLw3OA/53faC1/hdk8yk2z3zOHJOvK0U34Y2i+xUJGBk953ZLNkavJWPgWztssZwNs4pr4RdutxUuF5kKOsVz8vaxTUcl03XrePjFa5FsetjrGxWr/Qcntiejx2j8S6tOiVlGkWH5fG7vibEECJM+bcDdcfWn1qej8qW2PfQvxVe40vLum5H7zzmJv9zLFo4sdAVMI/z3HCMO3369Bn3OFHr6u0ysK7amHepvNYDAOeKdp3TLnTalS4MNum4Tj7tjqc0aAUAGCuGmSl1eJfcob8UmJRFhsam+74keKpZi7tElte+UTga2CFQBtsqdC0spUF4/YGGkWWMYkzRoI/9BTs/0KXn8fgvrtYvLU/664HluwqefY2T4QQAZ9GJEydSg03+mE+bNpmWAwBgDArvsmcYkkGDDe6O83C6VKFBxLNI7EDNlX6YqMG5DI4sY1SF2Z46kDhQtXjGmM3sShpkHyNBhhMAAAAA1JjN6HnOH8R3gjxRbZYcgGHRgGU0WDk5lvFU30ZLhhMBJwAAAAAAAOSKLnUAAAAAAADIVaYMp7yQ4QQAAAAAAND4KgacAAAAAAAAgGrQpQ4AAAAAAAC5IuAEAAAAAACAXBFwAgAAAAAAQK4IOAEAAAAAACBHIv8fs1hl3g8czNYAAAAASUVORK5CYII=;" parent="1" vertex="1">
          <mxGeometry x="-1067" y="168" width="983.43" height="70" as="geometry" />
        </mxCell>
        <mxCell id="kKGH1V7Vbg6gXXMReQId-5" value="Create one Raw Mat at PSA&amp;nbsp;&lt;div&gt;&lt;br&gt;&lt;/div&gt;" style="text;html=1;align=center;verticalAlign=middle;resizable=0;points=[];autosize=1;strokeColor=none;fillColor=none;" parent="1" vertex="1">
          <mxGeometry x="-1080" y="148" width="180" height="40" as="geometry" />
        </mxCell>
        <mxCell id="kKGH1V7Vbg6gXXMReQId-6" value="&lt;span style=&quot;text-wrap: nowrap;&quot;&gt;Material A&lt;/span&gt;" style="rounded=0;whiteSpace=wrap;html=1;" parent="1" vertex="1">
          <mxGeometry x="-1057" y="348" width="120" height="60" as="geometry" />
        </mxCell>
        <mxCell id="kKGH1V7Vbg6gXXMReQId-7" value="&lt;span style=&quot;text-wrap: nowrap;&quot;&gt;Material A&lt;/span&gt;" style="rounded=0;whiteSpace=wrap;html=1;" parent="1" vertex="1">
          <mxGeometry x="-917" y="348" width="120" height="60" as="geometry" />
        </mxCell>
        <mxCell id="kKGH1V7Vbg6gXXMReQId-8" value="" style="edgeStyle=orthogonalEdgeStyle;rounded=0;orthogonalLoop=1;jettySize=auto;html=1;" parent="1" source="kKGH1V7Vbg6gXXMReQId-9" target="kKGH1V7Vbg6gXXMReQId-10" edge="1">
          <mxGeometry relative="1" as="geometry" />
        </mxCell>
        <mxCell id="kKGH1V7Vbg6gXXMReQId-9" value="Print One Label" style="text;html=1;align=center;verticalAlign=middle;resizable=0;points=[];autosize=1;strokeColor=none;fillColor=none;" parent="1" vertex="1">
          <mxGeometry x="-1047" y="268" width="110" height="30" as="geometry" />
        </mxCell>
        <mxCell id="kKGH1V7Vbg6gXXMReQId-10" value="Mat A&lt;div&gt;2.5 KG...&lt;/div&gt;" style="shape=process;whiteSpace=wrap;html=1;backgroundOutline=1;" parent="1" vertex="1">
          <mxGeometry x="-862" y="253" width="120" height="60" as="geometry" />
        </mxCell>
        <mxCell id="kKGH1V7Vbg6gXXMReQId-11" value="Mat A&lt;div&gt;2.5 KG...&lt;/div&gt;" style="shape=process;whiteSpace=wrap;html=1;backgroundOutline=1;" parent="1" vertex="1">
          <mxGeometry x="-1017" y="328" width="65" height="35" as="geometry" />
        </mxCell>
        <mxCell id="kKGH1V7Vbg6gXXMReQId-12" value="Mat A&lt;div&gt;2.5 KG...&lt;/div&gt;" style="shape=process;whiteSpace=wrap;html=1;backgroundOutline=1;" parent="1" vertex="1">
          <mxGeometry x="-877" y="328" width="65" height="35" as="geometry" />
        </mxCell>
        <mxCell id="kKGH1V7Vbg6gXXMReQId-13" value="Every Box with the same label" style="text;html=1;align=center;verticalAlign=middle;resizable=0;points=[];autosize=1;strokeColor=none;fillColor=none;" parent="1" vertex="1">
          <mxGeometry x="-1017" y="416" width="180" height="30" as="geometry" />
        </mxCell>
        <mxCell id="kKGH1V7Vbg6gXXMReQId-14" value="" style="endArrow=classic;html=1;rounded=0;" parent="1" edge="1">
          <mxGeometry width="50" height="50" relative="1" as="geometry">
            <mxPoint x="-927" y="446" as="sourcePoint" />
            <mxPoint x="-927" y="506" as="targetPoint" />
            <Array as="points">
              <mxPoint x="-927" y="476" />
            </Array>
          </mxGeometry>
        </mxCell>
        <mxCell id="kKGH1V7Vbg6gXXMReQId-15" value="The operator picks out the weight of 1.5 boxes&lt;div&gt;And MES split it&lt;/div&gt;" style="text;html=1;align=center;verticalAlign=middle;resizable=0;points=[];autosize=1;strokeColor=none;fillColor=none;" parent="1" vertex="1">
          <mxGeometry x="-1062" y="513" width="270" height="40" as="geometry" />
        </mxCell>
        <mxCell id="kKGH1V7Vbg6gXXMReQId-16" value="Material A&lt;div&gt;3.75KG(1.5 boxes)&lt;/div&gt;" style="rounded=0;whiteSpace=wrap;html=1;" parent="1" vertex="1">
          <mxGeometry x="-1048" y="807" width="120" height="60" as="geometry" />
        </mxCell>
        <mxCell id="kKGH1V7Vbg6gXXMReQId-17" value="" style="shape=image;verticalLabelPosition=bottom;labelBackgroundColor=default;verticalAlign=top;aspect=fixed;imageAspect=0;image=data:image/png,iVBORw0KGgoAAAANSUhEUgAABJYAAAB3CAYAAABRwMpHAAAAAXNSR0IArs4c6QAAAARnQU1BAACxjwv8YQUAAAAJcEhZcwAADsMAAA7DAcdvqGQAADfqSURBVHhe7d1/jBXXefDxh6ShVCC7diG7Xtcs1C1JwYEu3lb72jGyiayCSN1dy3IcRcFyqLESYYiQ/3FtF1Hb9T8WCj+UV+ASK44s25FlCArFjWtsgc27SddsTYAmtC4sNMtuwVC7WKLbOn7Pc+bMnTNzZ+bO/cFyd/f7QSPu3B+z987MmTnnmeecmTQyMvKJAAAAAAAAAFX6lPsfAAAAAAAAqAqBJQAAAAAAANSEwBIAAAAAAABqQmAJAAAAAAAANSGwBAAAAAAAgJoQWAIAAAAAAEBNCCwBAAAAAACgJgSWAAAAAAAAUJNJR44c+cQ9BgAAAAAAAAqb9P777zdNYGloaEhaW1vdHICJhPI/OljPzYXt0VzYHhgv2JeBy4Oyh4mKrnAAAAAAAACoCYElAAAAAAAA1ITAEgAAAAAAAGpCYAkAAAAAAAA1IbAEAAAAAACAmhBYAgAAAAAAQE0ILAEAAAAAAKAmBJYAAAAAAABQEwJLAAAAAAAAqMmk999//xP3ONXcv3nNParf0b+83T1KNzQ0JK2trW4OwERC+R8drOfmwvZoLmwPjBfsy8DlQdnDRFUosFQpIFREkeVUWxB//etfy//8z/+4uWI+85nPyKc+RaIW0Gw4EY8O1nNzYXs0F7YHxotLtS9/8skn8sEHH8iVV14pkyZNcs8CCDWi7CXbuJMnT6a8oemN6cDSf/zHf8iePXvcXDFLly6Vz372s24OQLOgQTc6WM/Nhe3RXGrdHv/93/8t77zzjnz00UfuGZHPf/7zct1117k5YHTVc2zR4NGZM2fk3//938W0E2yjtq2tTWbOnCm/+Zu/KYcOHbLPfe5zn6OxCyTUU/b+93//V44dOyZHjx6NnU9aWlpkwYIFdrmUOTQrUncAAADqNHXqVFm8eLHcfvvtcv3111edUQ00gwsXLsibb75pL9z+/Oc/l8HBQTlx4oQcOHBA/u7v/k4GBgZsNsW//Mu/yH/913+5TwGo14cffihvvPGG/OM//mMsqKSGh4flJz/5ifzTP/2TDT4BzYjAknVUnjeVwcU/OOrmI0d/YJ7/69flnJu3zrwu6xY/bz6lzsnrf23eo5+PTcHr9vP+825ZZc97f1tfez72VYK/EX8u7X0AAGDscfWQ0rROXj8TvHJu7zrveTMl6yRHn4+/HqvLJJeb8npyebbOEdZxAsnvsG7v/ytfrk5ly8JYokGlt99+2waTbrjhBrn77rvl3nvvleXLl0tPT4/MmDFD3nrrLfnlL3/pPpHC1pHj+4XWVbPrrMl6dLTv233b31/tvh7fN6kLYzzQCxGaCahlL4++59/+7d/cXIpk+dPykzxHuGnd3nPl5xdXvsqej503gHQElkK3rpAVx/tjJystnC+Jed7Nhs79fJ95/zF5yRRIkavlS3+1V/bu3SsvP3qL3PLoy/bx3r1fk7nB22XFluB1O/3Vl8wnks+/LI8cX5V9YjzTL/vkFjn2MhU2AKMsWUkpNRxTGqz29Wdlq98wULoMGpx1O/qDxHo1tPIXnjvsBYtk5c9UKLXyqPS99nFOJVPZ5ZSeL/+bCGhDQLvAhZNmcYSP9YqyTv7r/pSezbRCtoR1hZcWyb6vRA3oqG6xV7bMflI2um1lt+UqiT6nr8uqxH7gLTf19Xy6P9z11iJ52VvG+sX/R74WLu8+rz7j1XEwtnz88cfyi1/8wnbj6erqkoULF8pv/dZv2f31Zz/7mfz0pz+1gSd18eJF+3+mWx+J7S9fCyvEZTSodJfs+2K0fwf7vjvuzGiVW46fLp07zg0dk1tM/bu/tPself5nV0hH5vKBsUEDSu+9956by6fZgmFZjDPl6f/uk0UvRWVv79dN4Zj7NTe/xbZqw/PB+sXB0do/v/jt19h5x5w3wjoCkIXAUkmrdHzRP1mZ4vnzfTLnxg43Fzon/W/Nka98c5HIW/0Naihdbf72LXJsKH1p9nvctUbMqVb6qeADGC0aEPpKvJLy8hf3yV02SDQ3o2F5nzywZY48+Wp0MD366pPmGEaD89K7xTTCci5ShPIqmUefN9XHLe51ndbLl2a4zyFGG+GHDx+2lXy9gqxj0fzrv/6rndduCzrpY83u2L9/v/zzP/+zndeuDDp+Rq4ZHbLINKBPp5zz5964Qvb/asg8Mo2Il7ebshc1BNTcr+vFqpcyA4KVXo/RC2ym4b6FgNG4p11vTp8+bcdR+t3f/d3SOC46ppKO7fLpT3/a7tMN7YZzdI88KY/IGtfAtWZ8SdaH5xAtB6W6r6t/3zVHtr/jys+Z03Lsvo7Y/g+MNXpRQscNLurs2bNy/vx5N+cbkqE358g1l+CcHZ13gGwEljytX1jkZQUFJ7CyqyB6EpxtTmKxk12+7avKrwjH6d8SWfSFtGrbUdnzhH4PDT6J7Ps50WIAo0MDQvLomlhg4erF623GxJ68dvHcpVHD1WZ+bsm5Yo1GWvTNLSKr4l1FqmEzAq5lMPEitKH9B3/wB7bL0B/+4R/abkLz5s2z89dee62d9LE+p6/pe3R+9uzZbgk5tK6R0UA4+s52WXGjFihtRKRla1wt18zeL0OZ9ZNKr3vODMl+Gu4TwhVXXCF/9md/JrfddpsNJvmmTJli67DaLS6c9L36mXrY480XO8qDlqVMJW9ftdn7rdI6t0NWuCwm24OA4xXGOM1g1fGVqvGf//mf7pFvrnxNqwCmrFbTPXT/E3eV2qnp2azBRQzqBqiEwJLPDxbpCUwDSMErJVGFLgj0+Ffls/hd4cK0QxUFnDaKfDPjqvDRftnuKnVXf2GRyBN7am4wAEBx5+T08VtSA96t12ZnWAauli/dpVecXw/SspfQLB09rmJZ43gIVy9eI4veMpVMui5eBtttg8DWC2z3tigTya/499+Y17UIaAJvPil3hftyYkykammmhM1QOjMkYoNQc6VjdlBXH/pV1kVZYIJyGckd7wTlr0j3tVhXOO0650TnnaC7qt+GBdIQWIoJGkOaFXT01bTGkPbljgJCdz2xX+TZxLhMVQgDTlvuy75yqIEseXZVULC/8qTsNxVPv7seADQlm7X0pDw5+yt0pRptpmKp4yHUNqCtGzfwmyIbG9AoHM90TBrt2qbd4bSbm96e/ciRI3b+V7/6lZ30sT6nr+l7dP748eNuCUn+WEjx7m1hxV/HcoyCuq3SemtanSAICrdmljuty3ivvzkkmR0cNHOkjnoOxg7t4qZjvOg+ql3ePvnkE/dKpMh7rNgYS/F92Xd16xzZnzashGbKzb7GHI0Ml6H0+jvHSkGkuTdqXf11sx9fmm4/wGj6zGc+U3X232//9m+7R+nmfl3L3haZU8ewLX7AiaASiiCwlGROYHPe2igvHV8kHYmT1bm9L8n2+/yxJzQoVH+gZ+7XM7ouhGMbeH9v7xZ35QYALqmgC0Ja99uhX+2XOa2VKhnB2HGkTjdSwe5Lxtwlj8ixOrrE2XFOzDnn5UfjYw8i8vnPf952bdPucNrN7ZZbbpHPfe5zdr6lpcVO+vj3f//35Xd+53fk937v9+z8H/3RH8ncubWlHAUZZRvd+Eh6MczUCRLb+egP7soJ6J6T1/96lanLhK/PlQ5TjwluRhI4t3ejPKlBK50x+8FXzOu1ZsBhbNCAUV9fn73j2zvvvCP/8A//UBYALfKequkFCLO3lQajVzq236pj8kjp4q7ui/vMP69ebuvq+xhfCePCpz71KfnsZz/r5iqbPn26XHXVVW4uh/Z6cQ+B0UBgqYym2O536ba+YByk6EQXsJX3Cndr88dYSu9eMFeWmsr7qsRrtu/4o0vjJ01/7BKj8rIBoDZ6fJMnwkZsQO8stur4I7KU2vyos11C/PONaYBtfMI0u9ICCDO+JGv0vPLyMZnjnqqenvfM+RCp9CqzjkWTNv3Gb/yGncJ5bTj4r+tna+O6mYZ3jNNuD25MjbAuYAdf97ozxLrYuS4N/us6mLft/ujeY+8A5w3WrVe+7Z3kSsvg9u7jjQ4E7N+RSoNIGjTSO8KFirynkvI6q2ZIxve/xfaGEf7wEMHQE/vFZTBZGmzaL3Ps0BTA2NfW1ibXX3+9m8unFyimTZvm5jwalA3LkU7apbrAjRdiYyyRpYw6THr//fcz8lgDc//mNTn6l7e7udoVWY7e4rS1tfjVbR1Bf8+ePW6umKVLl1YVFQYwOqot/6hN1etZKyq2G66jXRwSFRW9HXnauC8ahNooa0ihzlHt9tB1arthW7fII14D7OgP1snpJX6DTLNTorERyrfHUXl+cb90eF1VdFuuetbNGJoKP5G2X6OOQ3qXOKVZStplTrsOaYaTBpWA0VDNvqxdNX/yk5/YYFFI7wz3xS9+sbTPFnkPgNrPIzqA909/+lMZHBx0z5SbP3++fOELX7AXLoBmQ2AJQFNoVIMO+epaz0efl8Uvt5YFllA79vvm0qjtcerUKfnFL37h5kSmTp0qN954Iw1wjJpq9mXNOurt7ZUTJ064Z0T++I//ONZls8h7ANR3HtHA7bFjx+To0aPy0UcfuWfFdq1esGCBXe6kSZPcs0BzGdOBpV//+tf2Fo3V0PRzTUkH0FxoYI+OetezzZhJdJVB7djvmwvbA+NFtfvyxYsXbVe3c+fOSXt7u1x77bXy6U9/2r0aKPIeYKJrxHkk2cadPHkyASU0vTEdYUmOWVBkIqgEALW7evF62UtQCQDGlSlTpsi8efPsIPQzZ85MDRgVeQ+A+iXbuASVMBYQZQEAAAAAAEBNCCwBAAAAAACgJgSWAAAAAAAAUJNCg3c3SqMH7wYwflD+RwfrubmwPZoL2wPjBfsycHlQ9jBRVQwsjSYKIjBxUf5HB+u5ubA9mgvbA+MF+zJweVD2MFHRFQ4AAAAAAAA1IbAEAAAAAACAmhBYAgAAAAAAQE0ILAEAAAAAAKAmBJYAAAAAAABQk0lHjhxpmrvCAQAAAAAAYOyYNDIyQmAJAAAAAAAAVaMrHAAAAAAAAGpCYAkAAAAAAAA1IbAEAAAAAACAmhBYAgAAAAAAQE0ILAEAAAAAAKAmBJYAAAAAAABQEwJLAAAAAAAAqMmkkZGRT9zjVO2P7HSP6jfwZLd7BAAAAAAAgLGuUGCpEQGhRi0HAAAAAAAAzYHAEgBk6O3tlW3btrm54lauXCldXV1uDgAAAADGLwJLAJBBA0uqmiBRLZ8BAAAAgLFqTAeWere/IIv6p8hzj/XIPS3uydC7r8nkZ85K97LF8sOlyRcvtyPy1KpBuW3L7ZLZ9Bw+IHc/Pix3pv02AKNiYgeWDsrm9h552s2JPCQ7Bh6UhW4uknxfaIls7N0q3deckZ3f6pQ1u93TatlG6ftut8xwsyjg4GZp33+zDKyJtsCZHz0gnatviG2XgxvbpWeDm7HC7eBm0TAvPv6CHL/jq/LwAveEo3WTDW1e3cPVR6yWdjn52E3Sqo/9543195cva2jPDpm5e5rsS9YXbB1hQIJRMBP1oNhrgaguNGy+915ZPhw8H0r724HE+/3vrxJ/K1nnCr7/xWAm8dmgDudmnLw6W/L9ad/Zvmcw8R1LtO51SCRzPbvvmVyfTv6yVbD8dfbx9Pg2S6vT+esuuV5H2VOrXnDfOyH3e2Wvz6TybZ1YP4myUPa6YZch82VkxTz3TCC+7dL3If/vx1/3t1mVZTBB/8YbnZXXxZiQcgwJt8kssz5Wy02Z5bRe/vZMbsu0fcDfttnHseaV3H99ub8n7ZiSJmVbpq5Xv3x2JMtZdllPfrb8O8fPIbHXY98t7bgb/N3+nPNCQP/GAZGVFdbFmFF+ns47NzaTMX5XuCnS3XJRXjmYqCEZvX1nzWtT3Nzo0MI1efsRN1efIf1NZv9J+20AcKkd3Pi23DwwIANu6tt0WHo2HnSv+hbKg9777NS7UZYsWyo3l4IZGtzwXieoVL+DmxNBJQ3wtUuP7Ihvix0PyEyCSpfErZ1TZF1f8px/RN7onyJ3LnQVQNtgFtMg+6qM6BQ20rVCvWuqnCw93y79z+yQF71TvtYpZg5Ok/VuPmIq27ZBEX62RV55/DUJQtqOBgTCZZspXiHVCnz0WtrfDvVu32uDZ+F797UNyMxSPcdUfrcNSIdpKASvz5eO3Qei5ZjfHjTI0z4b0EZGuOzg83vlqXfdiz6zLG20l95rv7P/m7Ui/oJsMI3fzEuY7w5Kv6kXlm0z/Z6Dc6Jl3z9NlsfWZ4Fll4TrNh6ESK3TtZjGufstlzuf/2FvvXbbAEI4nxPsylqfGfxtfXLZBVlkGoJD+oKWBb+M2CkZxDHlatDU+fsH4/u5+eyzcpP3ucQ+aNiGrwYj3HuisqDbNWi02teqKoOjRNfNqvSymavWz/kSx5DybXIJaWAjtq1U+j7QtSL4fvs63BNjTOvSntI61t+gAYRwPi9IVlU7MbYt48dZDWz55cNOieBt3rGz8nF5r7zSmfab9DzmnT+Sx127Dx8z+8LotuV9um4mh8epKtT6uZCed/11ptNYCCqpMR5Yuigdne0ife8lNp5W7KbLnZ1utoDe7XUegA17cEsWxpoMy5t9InfeYXaist8GYLRo1tFE7dK2cE08O2nGdTeI/PKknHHzeQ7+cI3In97sgken5NTuGwhuNNLpnfJAjyQylXrk6bU7YhlN1sKFse2Ixmld2JLS0P3AVMBb5FZbBzSV6l0X5LnHUhpkGlTwG+0t18udLRfleHjCN5XqDfbKfJt7wmMq+es65kRXZs2yNpmG+oY9rhIz9JHsbLuyePZL8m97tF7jN266OqeLDH7g6iVn5fjwdLmt9Po8ua0jWo69wLdsfum3d62YL+uT6ytGPy/SP5hSGVtwe7yR1XKldMgFORG+9d1DtiL+wy9PdU+U0+/Tccec8u9glh2ruy1ok/VVLjvf+KzTZa7PAlqXms8Nm/Wi61j31462/KCF7vNtc2Rtx1l5ww88mn3/4ViDa7rMTpYjzTJLq5sPvyevmP13bfh5W468hnpeGRwtNvhYIAvDNPDvDsu/Kvq5sSRrH5iQ6jmmzJP7lkVBohODF2V9Z37bNe/YWem4vLxtfnpQRLdnS7vcF37eLGuft217fxxkY913GYufDfoVyCRNxhCKfi7dsNkm3sWppGRZbzJjPLBktJkKkRYwfx3bSleb3OpmQzaCuOqF0hREa4MrUYv6L8py83/0vGE2XvR+PwKrUdYDMhS+7qKSuvxoYwfLTf98BVoQxVRMF6T8NgAYdWdk598+LUtKwaI8B+XtDQ/JA39OTtKlcVA2d+2Rpb1+4E/X+RLZeDchpFFlAzLxRo69itx5fVCh1IarnssLN+6myOywJqoNwyouVLW2TZOdg35Xoiq4BnYUIKqgFLTSQJD/+4OLesFytHIs0tHm/3ht9HuNjjKJbK8cQ3uOmUaJt25NoyT3iq4GCex3S37nLNNkVtFlVzIe63RVr88crVPLA7QxGqA9axu/GtjMzZDSde3ty7HymKQBrZapMsvNqlg5qrIM5tMuPV6bIJa5l3jNTUFbRF+L2g+2Z4T3Hm1z2LbNM2dl5+69wfN22fHPZf79WDvHTLVkWSSWEbah9LuW2lOG/e7+8vVzhf9eFfvARNDAY8qstgpZh1WU9eRxWQNSWUGrocEL3rkkoN8lvLDQtaKBgdGMfdQyv+9u77VgcoEi/ZyfoRtr1+tyMmIIsc8Zib8RxgrSyrM58Jj1kN4bK72sq/h38wNP+pmn3o2X/9jvb7CxH1jSgtUZTwXM2pFPtHmpzqV0vRa557HF8lxLlBpuo6+6E3ipubG0XTU8IDP72tyy0qKSZ2WWlz5uP+/vZDn0+3fbE2H5bwNweZw/f142b94s3/jGN+z/H374oXtl/NIxfNrb2830qMhjA7K1QLDozI+2ytNrb46CHqdPymF5WnrscoJpc1qPOhRwUnZ+q0cOb3oiPmaSXcdkhY0+PUf7lXJ3FTkMjLjMoRNe5dGv8MWEDYUiFWnNqOk/5l0hNZVGb3waW2HvP1T6m+UXtqJKsJ22iWwq1M0latyFulYsltm7wmUlx470AmUl8cyodc9438N+Pqcx4VXOdYyXaq4Ia4AhzIqp1DC1jaNKGTRVGI91umrWZ5pYA9RmCpk6sm7btECDH/i0+34yCOU1mmy9PNoHNRujo+2s16hK9E5Iy+wrZeQ1in6/YHyaoE1g2hyDh7zGpdcdz0zaHSp1bB3TWLVjfLn36aQBT82OOLlsStSFqiwYpo3O+N8I3qPHDc2ojJZXdZaFNqBjXX2j7oTxgEUQNO6Wj+SEe0aPU0G5KKDiPjCx1HdMOSLP7o6ylFqX3mT3Ry0faeenimU987gcZN7MFj+oEj8XdbdNd48iNV8gyZKzj9qyEevOHcYDys9DQ3sO2OyrUlkx08MLMmIIMaac+V3+zGQvVGSUZ6XZvdpdUdeZHwTKKuvxrnPlXcrXPaPnVvd3Urr8NtI4CCyZFa2VuFIqoPbB9VLrPF0LvIOtTdfL1vvjAREvhTtI240OiLYf/ZeTB2/fPPP33ENDr4IUE79iZ3/b7kMT+gAKNIOrrrpK7r33Xuno6JD+/n75/ve/P+6DSzP+fKsbq+cJkcfbpf1bOyt0hTsoL66WeObMNd2y1R/zp3ejHO4huFSTDWvk1F/skBtWd1ZcfzqIdxjIe+BHRTowohax7nBpGUr9h7wxKBbLnX1pYwi5Bt7Koo26efKwHY8irKwPymytbLpKuj9mh072wlasQh9Vgu20UmR1gfFYwoq1X3G2z5kG3z5bIT8bvwBXQHyMpTZ5I1GRjrHde4L3bjKNlbIgQSYN+HndPcoCcx7TSFqt40I1MFNl/NXpqlifHj+IOLOvJTYoeLjPnuwclpn6Hu9CrN+wDbPkSt0+LVMewn2oc9AuP7tRlTIe2aWW7PJjjhH3rEwbxqMCzewKuw9WwwVlSl3+SoJug5lBCb2A7raXnVIujtsAh9dWCoKEQaDDHhvDIJ3tSTJH1raFGS/BPhTPaMxWeR+YSGo4psS2ZXIQbg2OaPkIzk/x8lOgrOcely/K8l164cKVv/ul6nNEvfL20WrYdnwtAc2y8u/klufwmDZfxB43c8515pylGWVR+Q66OvpdypO/f21HTrmv07gILNl0dBmQZ01B0Ksg/RkR8HhXuOguEFlKqWal9/sp3F6adKp4Wlr8bhc5dAf0ryba0fLrTDMG0BBXXHHFhAsuBWZI93d3yEO798jbp91TaQ6+LU/HBu1OcU23PLFpiRw+RbCjamt3yIMLF8qDOx6Sp3s2Sym2dM1MuUEOy0lv2yxcEwTy+sy6xiXkdYfTxk9Zt5sOPxCjV5fjFT4bVLIV/SrT/nVcoLCyvuV2mWUzM9IXYK9I53VBK1DR1vqTDQb4ARcNwuhzNkMkaJxoYGB1qcGXNm5TWhZTSANmxbJfNBCxr2jl2Das/cCG1udSPqtX3u2g6EWytwoa63U6LxuhlE1UYX363Tv8AE8siJiRGRMEmHQsrkPus0HD1s/A0ztQ7cwKyphyoVf0/X1o/f3e9rTl1SsLadlJBcYny/qNmdKW6S5W+9kJ9vdJPHhbYhvwN4lsc3+7YC8IK9HlLxCU2SAYoMtMBNySg3dnBFvTjjs260Qv4LuGszbuNTgRZbwkx2fLU+U+MI747dZSNlHuMUXPJ+55f3smtmXq/hUGmPQYHA7AXfTY6ZQfl6fEL5hoYMpL0kjLTkrLYorL+I05MvdR/c0rNYMnXJ5m/tyUfi6259zg4oe+NzP7OE1a+S9UnoMA00lzfl6+LS8gdzbI+HST3mUwL/NLswkvlfERWHKVtXV9B8zBx0tD95QqRaWCZU5c7rUs8StpOhWt+GlQKTGiuymoRdiDb+LvJk+SAC6t3t5e2+Utbfr2t79tg0pqYgWXKgnGYXroLyrf8e3UiVfdI9Rk4YOyY+3T3l36rpPrlr0qe35GsG705dQ/9IpkbreaoItKkdu15wuuYGcHbLQR5x5m0C5DmRXRd18ryzCxUgYJj8ao0XEi9AKv/4f1e+RflLPd+BrcFckG/PxuQDqZOlm8YardFQrcurtKY75OZxs/7ru77V9pfYZ36dKptv1aM1LcQ5sFmAhwaP29YOaOP2ZLGZsx4PdECPa/yg3bGn5j2j4dBnt0wH93FzQ75WbLhdklX5V9EnWnqyjxO32lDMcas0nS1m+wDnU7anBZj0+Jbmw2g6lgd9M694GxrLRtzBR2k8o/pnjZe4W6N6fQbeQeFjt2ZgnGCkq7KYSyGUCJchF0Xa10AK7+N2bvo4Y5j/m/MX88vfBvZ2UfZ8g8pxUrzzb7zz1OlQwC65RzHNH1fKmMk8CSW+n9A/ljFHgVINu/2z0OxHd+G1WP3TKxelHhMJXHXdmRwxKXzpaM4Ae/bWL3Jwaa2ccff+wejRcHZWei+5QdOykvG+n027Jn90Nyc3L86NNn4t3nTu+UrRuWyNI/YXDveixcs0Me2tDjusTNkO7HNoqs7qTb22WQWf/wsqkDwdgWQd0guAClt/KvL6gUBKf8u8QNmQaXLzmgahlb95Cou4NPx6fYNbU8qKTsoMt+t4igrhNW2Lu+3B7roqFjyeQ3JoP1kzbuSu+eRIPXfuciA33rMlMuONor52HDVK+AH5PZDQ4qjc86XZH1WZ3k/hpuWw2U2mEpyvaHIGChWRHaFTO+HhPjx+j39LsJ2cG9XXDTdgnxulSZv7s67bfVy64b/zhgysm26HfZbl7BC1VJZh1kBoZdVmXFrmNant3DorSttNNfv4l1aNtSu45JfyljynVj21UsgKcq7QMTSsOPKaYMJVZhcL7Q7VW5rFc6LgfbP3pPtGxjwXx5zj8/6phDKb+tXpX2UQ3UVS+4cBLJDqCVl/90UXku3yZaBvyLOLGy7uoZUaZwueTvL3burM24CSwFB07JHAjOjpHkpVGuljnyXGmdtsg9d2ggKXjNRiA15U2j9+79diocyY8vb/KqAyJ3tFc8YNuTS1qly50U6A4HjI6uri753ve+lzp95zvfsV3hlP6vXeN0/KXx5TqRv+8sjdGjU+ffL5W+77psJL3dvXnOH+fn4A/XiGy6J+XW9m/Lo95y2u0dzbbGB59GDcIucQ/ITu0CZ8eyCsZfim231WSHXXKZ9Q+9GhmOkaBTMICuDSTZBm583JlwKnIVNOqK47Kj/auTB8OuLcFUnm2UGLzbDSxaHuByF8WSY63Yz5j6kGazxMZ6Cr5L6YqvfT2qR9mBShNXUeO/P1g/aVeMZ5nvEvsORbOL7PgWaUE1PzihFxoT68RO9Q1wOi7rdAXWZ9US+2u0beNjyfhsY7HvPZG2j+L1dLMPxTIAE/vgZDtYdZTloIPPh+PKBOWgvuBisjwHGQia5eAfB/bGbsHuD55cmtK6xWiQ13uPlutNpWV4bZyyzwbHIb+7XfAev0uRmXS9Fx7nzUm2lZLr0GaFXYwFhuy2M6ulWMO28j5QrF02PlyKY8qbYVcsN5XOFwXKesXjsnZNDcdN02Xr+HWlc1Hi/Jgom9UrP4antucT+2iyK6pOaZlD8eF0/C6rKTGEGFP+7YDZieVnluez8mzid+jfCs/x5WVd16N3HHOT/z26l00tdeFrxHEuz6SRkZFP3ONU7Y/slIEnq41hl2vUcgDgctEub9r1TbvAhUElHXfJp93olAanAAATRY2ZT8MH5G69M19aVhjGN932ZUFSzUI8ILLy0jX+mpkdumRwToUugeU02K43SqgvAxQTigZ37B3j/ICWHseTdzgdu7Q86d368rv4Nc74yVgCgEvo/PnzmUElf0ymbdtMCwEAMAGFV80LDKWgQQV3BbmWrlAYJ5JZIXbA5Eo3CBrnXEZGkTGkwuxNHdAbqFoyA8xmaqUNdo8iyFgCAAAAgFFmM3R2+4PpTpHnqs16A1ATDUzGg5LTExlMY9toZywRWAIAAAAAAEBN6AoHAAAAAACAmhTKWGoUMpYAAAAAAADGj4qBJQAAAAAAACANXeEAAAAAAABQEwJLAAAAAAAAqAmBJQAAAAAAANSEwBIAAAAAAABqQmAJAAAAAAAANZk0MDDQNHeFmzZtmly4cMHNAZhIKP+jg/XcXNgezYXtgfGCfRm4PCh7mKgmjYyMNE1gCQAAAAAAAGMHXeEAAAAAAABQEwJLAAAAAAAAqAmBJQAAAAAAANSEwBIAAAAAAABqQmAJAAAAAAAANSGwBAAAAAAAgJoQWAIAAAAAAEBNJo2MjHziHqdqf2Sne1S/gSe73SMAAAAAAACMdYUCS40ICDVqOQAAAAAAAGgOBJYAIENvb69s27bNzRW3cuVK6erqcnMAAAAAMH4RWAKADBpYUtUEiWr5DAAAAACMVWM6sNS7/QVZ1D9FnnusR+5pcU+G3n1NJj9zVrqXLZYfLk2+eLkdkadWDcptW26XzKbn8AG5+/FhuTPtt6Ualhcf3yvLh91sS7ucfOwmaXWzAKpHYEnkzI8ekM7VN8iOgQdloXuu3EHZ3N4jT7s5WbtDBtaE7z4jO7/VKWt2u1m1bKP0fbdbZrhZFHBws7Tvv9lbr+nb5uDGdunZ4GasJbKxd6t0X+Nm0TAvPv6CHL/jq/LwAveEo3WTDW1e3cPVRyz/3Ow/b6y/v3xZQ3t2yMzd02Rfsr5g6wgDEoyCmagHxV4LRHWhRF3BSfvbAa2vHJJ1bk5kevl3ce/pT9a3cr9HWIezD0vy6mzJ96d9Z/uewaz6T/A9JXM9X3Rz6fXK/GUrf10l1lNanc5fP5e5zvbUqhe8bezJ/V7Z6zOpfFsn1k+iLKTtZ3YZMl9GVsxzzwTi2y59H/L/fvz1+P5dVRlM0L/xRmfldTEmpJTdcJvMMutjtdyUWU7r5W/P5LZM2wf8bZt9HGteyf3Xl/t70o4paSoch5W/Dq2OZDnLLuvJz5Z/5/g5J/Z67LulHXeDv1t2bimjf+OAyMoK62LMKD9P550bm8kYvyvcFOluuSivHEzUkIzevrPmtSlubnRo4Zq8/Yibq8+Q/iaz/6T9tjS92/faCu7IlmDa1zYgMxv0XQBMTBqk6Dxxgzzk5tNp4GirXNc7IAMDOvXJxl/2yAM/OuNeVxrcCF83E0Gl+h3cnAgqaXCvXXpkR7SeddrxgMwkqHRJ3No5Rdb1Jc+zR+SN/ily50JXAbQNZjENMnd+DhvpWqHeNVVOlp5vl/5ndsiL3ilf6xQzB6fJejcfMZVt26AIP9sirzz+mgQhbUcDAuGyzRSvkGoFPnot7W+HerfrRbDovSeXXZBFft1Cf8eqY6YhklHfyv0eQSMjfG1ky3zp2L1XnnrXvegz61Eb7aX32u/s/2atiL8gG0zjN/MS5ruD0m/qhWXbzCx75uCcaNn3T5PlsfVZYNkl4bqNByFS63QtpnHufsvlzud/2Fuv3TaAEM7nBLuy1mcGf1vb/cg0BIf0Bd2H/DJip2QQx5SrQVPn7x+M7+fms8/KTd7ndB86UFaObDDCvSfaB3W7Bo1W+1pVZXCU2PKVXjZz1fo5X6Lslm+TS0gDG7FtpdL3ga4Vwffb1+GeGGNal/aU1rH+Bg0ghPN5QbKq2omxbRk/zmpgyy8fdkoEb/OOnZWPy3vllc6036TnsQHpCI8LyeNupXPLKNB1Mzk8TlWh1s+FtE3vrzOdxkJQSY3xwNJF6ehsF+l7L7HxtGI3Xe7sdLMF9G6v8wBs2INbsjDWZFje7BO58w6zE5X9tnT6t/0DUFfndJHBD2reqQEEWUcTtkvb6Z2yVYMUa252T2SZId3f9TNiZsjNf7pEXj1xys2fklO7byC40Uhm2zzQI4lMpR55OpYp5ixcmJNphnq0LmxJaeh+YCrgLXKrrQOaSvWuC/LcYykNMg0q+I32luvlzpaLcjw8aZtK9QZ7Zb7NPeExlfx1HXOiK7NmWZtMQ33DHleJGfpIdrZdWTz7Jfm3PV0r4t+9tW1arG7R++Pgivl9KV+z6u8h8+Q207DqH0ypjC24Pd7IarlSOuSCnAjf+u4hWxH/4ZenuifK6QXHjjvmyPrkNjPLjtXdFrTJ+iqXna/6Ot1YkLk+C2hdaj43bNaLrmPdTzra8oMWus+3zZG1HWflDT/waPb9h2MNrukyO1mONMssrW4+/J68Mjxd1oaft+XIa6jnlcHRYoOPBbIwTAP/7rD8q6KfG0uy9oEJqZ5jyjy5b1kUJDoxeFHWd+a3XfOOnZWOy8vb5qcHRXR7trTLfeHnzbL2eds299wySmzQr0AmaTKGUPRz6YbNNvEuTiUly3qTGeOBJaPNVIi0gPnr2Fa62uRWNxuyEcRVL5SmIFobXIla1H9Rlpv/o+cNs/Gi9/sRWI2yHpCh8HUXldTlRxs7WG765yvQgiimYrog5bdVo6oKHQB4rumWrckgRRWWzLrOPUJjHZTNXXtkaa/fNfGgvL1hiWy8mxDSqLIBmXgjx15F7rw+OPdqw1XP5YUbd1NkdnjS1oZhFReqNOCzc9DvSlQF18C+zW8gpNJA2VnpDn+f0bWikY3XRLZXjqE9x0yjxFu3plGSe0VXgwT9+hs1eFWkYTpNZhVddiWNqtM1k6rXZ47WqeUB2phgv9PGr140zc2Q0nXt7cux8pikAa2WqTLLzapYOaqyDObTLj1emyDWoyDxmpuCtoi+FrUfbM8I7z3a5rBtm2fOys7de4Pn7bLjn8v8+7F2jplqybJILCNsQ+l3LbWnDPvd/eXr5wr/vSr2gYmggceUWW0Vsg6rKOvJ47IGpLKCVkODF8raqfpdwgsLDT23ZOyjlvl9d3uvBZMLFOnnSmU12a7X5QTPlcUQYp8zEn8jjBWklWdz4DHrIb03VnpZV/Hv5gee9DNPvRsv/7Hf32BjP7CkBaszngqYtSOfaPNSnUvpei1yz2OL5bmWKDXcRl91J/BSc2Npu2p4QGb2tbllpUUlz8osr2taWfp4Dv3+QcWt/LcVEx2AATTG+fPnZfPmzfKNb3zD/v/hhx+6VxB3UF5cLbL0T1xnt9Mn5bA8LT3t7dLups0Hg5dQrZOy81s9cnjTE/Exk+w6Jits9Ok52q+Uu6vIYWDEZeyc8CqPfoUvJmwoFKlIa0ZN/zHvCqmpNHrj09gKe/+h0t8sv7AVVYLttE1kU043l+iinI5hUTwlv/L3EFn3TPiaTtrtLqcx4VXOdYyXaq4Ia4AhzIqp1DC1jaNKGTRVqL9O13yqWZ9pYg1Qmylk6si6bdMCDX7g0+77ySCU12iy9fJoX9ZsjI62s16jKtE7Ie0CbMOz/fX7BePTBG0C0+YYPOQ1Lr3ueGbS7lCpY+uYxqod48u9Tycti5odcXLZlKgLVVkwTBud8b8RvEePG5pRGS2v6iwLbUDHuvpG3QnjAYsgaNwtH8kJ94weH/wgda6K+8DEUt8x5Yg8uzvKUmpdepPdH7V8pJ2fKpb1zONykHkzW/ygSvwc0N023T2K1HyBJEvOPmrLxjavO56WTRsPKD8PDe05YLOvSmXFTA8vyIghxJhy5nf5M5M9h2aUZ9W1IuiuqOvMDwJllfV417nyLuXrnvG6tKd0+W2kcRBYMitaK3GlVEDtg+ul1nm6FngHW5uul633xwMiy+aXTk5B2m50QLT96L+cPHj75pm/5x4aNn28kPgVO/vbdh+q6gAa7vzlOzeAWl111VVy7733SkdHh/T398v3v/99gksptEtWLPChmU/+mD+9G+VwD8GlmmxYI6f+YofcsLqz4vrT8bHCQF58vCs0Uqw7XFqGUv8hbwyKxXJnX9oYQq6Bt7Joo26ePGzHowgr64MyWyubrpLuj9mhk72wFavQR5VgO60UWZ0zHku0vJtEtpm/VzDLoPL3SI6x1CZvJCrSMbZ7T/DeTaaxUhYkyKQBP6+7R1lgzmMaSat1oOYGZqrUW6drPlWsT48fRJzZ1xIbFDzcV052DstMfY93IdZv2AbdJc9G3T4tUx7Cfahz0C4/u1GVMh7ZpZbs8mOOEfesTBvGowLN7Aq7D1bDBWVKXf5Kgm6DmUEJvYDutpedUi6O2wCH11YKgoRBoMMeG8Mgne1JMkfWtoUZL8E+1NGW/E7pKu8DE0kNx5TYtkwOwq3BES0fwfkpXn4KlPXc4/JFWb5LL1y48ne/xJM0RkHePloN246vJaBZVv6d3PIcHtPmi9jjZs65zpyzNKMsKt9BV0e/S3ny96/tyCn3dRoXgSWbji4D8qwpCHoVpD8jAh5ddQsKVuodMDylVLPS+71+o36adKp4Wlr8bhc5dAf0ryba0fKLpxnrb7Qn7IZVigCErrjiCoJLOewdyWSHbP3znKG5r+mWJzYtkcOnCHZUbe0OeXDhQnlwx0PydM9mKcWWrpkpN8hhOXnazRsL1wSBvD6zrnEJed3htPFT1u2mw7/Io1eX4xU+G1SyFf0q0/51XKCwsr7ldpllMzPSF2CvSLf49ZeEwhVtbYDMj8bGqVLF76GV6fuLZb9oIGJf0cqxbVj7gQ2tz6V8Vq+820HRGzhIcZ11usvOy0YoBRQrrE+/e4cf4IkFETMyY4IAk9nH+g+5zwYNWz/zTe9AtTMrKGPKhV7R9/eh9fd729OWV28fTMtOKjCMRNZvzJS2THex2s9OsL9PMi4M2wa8C+7qewv2grASXf4CQUAhCAboMhMBt+Tg3RntirTjjs060Qv47lihjXsNTkQZL2fleKHut6rKfWAc8dutpWyi3GOKnk/c8/72TGzL9MQDF2DSY3A4AHfRY6dTflyeEr9gooEpL0kjLTspLYspLuM35sjcR/U3r9QMnnB5mvlzU/q52J5zg4sf+t7M7OM0aeW/UHkOAkwnzfl5+ba8gNzZIOPTTXqXwbzML80mvFTGR2DJVdbW9R0wBx8vDd1TCriUCpY5cbnXssSvpOlUtOKnQaXEiO6moBZhD76Jv5s8SWZ697Wyq0AAqtfb22u7vKVN3/72t21QSRFciuit7+0dyQqMy3TqxKvuEWqy8EHZsfZp6dkYhpauk+uWvSp7fkawbvTl1D/0imRut5qgi0qR27XnC65gl8ZnKqONOPcwg3YZangXhDKVv4ftPtfgrkg24Od3A9LJ1MniDVPtrlDg1t1VqqtO1wxs48d9d1e3rLQ+w7t06VTbfq0ZKe6hzQJMBDi0/l4wuOmP2VLGZgz4PRGC/a9yw7aG35i2T4fBHh3w390FzU65F4bD7JKvyj6JutNVlPidvlJmYY3ZJGnrN1iHuh11IHU9PiW6sdkMpoLdTevcB8ay0rYxU9hNKv+Y4mXv1XoXP91G7mGxY2eWYKygtJtCqOSNIFTQdbXSAbj635i9jxpDH8V+Y35X7/BvZ2UfZ8g8pxUrzzb7zz1OlQwC65RzHNH1fKmMk8CSW+n9A/ljFHgRQ9u/2z0OxHd+G1WP3TKxelHhMJXHXQUqbC6dLRnBD35bhfQ77UOqty4mqASMuo8//tg9mpg0qNR54oH0oNLpMxILd+jd5jYsicZgQk0WrtkhD23ocV3iZkj3YxtFVnfS7e0yyKx/eNnUgWBsi6BuEFyAOn5HvUGlIDjl3yVuyDS4fMkBVcvYuodE3R1KjsiLiYpuxWV5qv4ebv2kjbvSuyfR4LXfuchA37rMlAuO9sp52DDVK+DHZHaDg0p11emaVpH1WZ3kfhJuWw2U2mEpyvaHIGChWRE69EN8PSbGj9Hv6XcTsoN7ux4HtkuI16XK/N3Vab+tXnbd+McBU2a3Rb/LdvMKXqhKMusgMzDssiordh3TQJt7WJS2lXb66zexDm1batcx6S9lTLlubLuKBfBUpX1gQmn4McWUocQqDI7Tur0ql/VKx+Vg+0fviZZtLJgvz/nnRx1zKOW31avSPqqBuupp0Mw9tLIDaOXlP11Unsu3iZYB/w6rsbLu6hmrc8p38vcXO3fWZtwEloIDp2QOBGfHSPLSKFfLHHmutE5b5J47NJAUvGYjkJryptF79347FY7kx5dnB7y8o73iAdueXNIi+O6kkJ067QJXyf7Q7jsDqE5XV5d873vfS52+853v2K5wSv/XrnE6/tKEore7Lw3CrYN1vyqyoac0pk9pshk1b8uj/nP2jmZb44NPowZhl7gHZKd2gbNjWQXjL/nboFO3DS6tzPqHXo0Mx0jQKRhA1waSbAM3Pu5MOBW5Chp1xXHZ0f7VyYNh15ZgKs9kTgze7QYWLQ9wmYafG3Mje1k5Kn6P5O8P1k/aFeNZpp4Tq98UzS6y41ukBbP84IRp7CTXiZ3qG+C09jpdEyuwPquW2E+ibRsfS8ZnG4t974m0fRSvp5t9KJYBqBlXfl3eDlYdZTl0rYjGlQnKQX3BxWR5DjIQNMvBPw7sjd2C3R88uTSldYvRC8jee7Q8bSotw2vjlH02OA753e2C9/hdisyk673wOG9Osq2UXIc2K+xiLDBkt51ZLcUatpX3gWLtsvHhUhxT3gy7YrmpdJwuUNYrHpe1a2o4bpouW8evK50DEufHRNmsXvkxPLU9n9hHk11RdUrLHIoPp+N3WU2JIcSY8m8HzE4sP7M8n5VnE79D/1Z4ji8v67oeveOYm/zv0b1saqkLXyOOc3kmjYyMfOIep2p/ZKcMPFltDLtco5YDAJeLdnnTrm/aBS4MKum4Sz7tRqc0OAUAmChqzHwaPiB36535igbsMH7oti8LkmoWot6B8dI1/pqZHbpkcE6FLoHlNNiuN0qoLwMUE4oGd+wd4/yAlh7HdcD/eoJczUPLk96tL7+LX+OMn4ylCSAZLQ2nIlc3AdTn/PnzmUElf0ymbdtMCwEAMAGFV80LDKWgQQWtxz2ug+9iwkpmhdgBkyvdIGiccxkZRcaQCrM3dUBvoGrJDDCbqZU22D2KIGMJAAAAAEaZzdDZ7Q+mO0WeqzbrDUBNNDAZD0pOT2QwjW2jnbFEYAkAAAAAAAA1oSscAAAAAAAAalIoY6lRyFgCAAAAAAAYPyoGlgAAAAAAAIA0dIUDAAAAAABATQgsAQAAAAAAoCYElgAAAAAAAFATAksAAAAAAACoCYElAAAAAAAA1GTSwMBA09wVbtq0aXLhwgU3B2AiofyPDtZzc2F7NBe2B8YL9mXg8qDsYaKaNDIy0jSBJQAAAAAAAIwddIUDAAAAAABADUT+P6CEB4bJR5yRAAAAAElFTkSuQmCC;" parent="1" vertex="1">
          <mxGeometry x="-1080" y="553" width="887.9" height="90" as="geometry" />
        </mxCell>
        <mxCell id="kKGH1V7Vbg6gXXMReQId-18" value="Material A_2&lt;div&gt;1.25KG(0.5 boxes)&lt;/div&gt;" style="rounded=0;whiteSpace=wrap;html=1;" parent="1" vertex="1">
          <mxGeometry x="-839" y="806" width="120" height="60" as="geometry" />
        </mxCell>
        <mxCell id="kKGH1V7Vbg6gXXMReQId-20" value="" style="edgeStyle=orthogonalEdgeStyle;rounded=0;orthogonalLoop=1;jettySize=auto;html=1;" parent="1" source="kKGH1V7Vbg6gXXMReQId-21" target="kKGH1V7Vbg6gXXMReQId-22" edge="1">
          <mxGeometry relative="1" as="geometry" />
        </mxCell>
        <mxCell id="kKGH1V7Vbg6gXXMReQId-21" value="Print two Label" style="text;html=1;align=center;verticalAlign=middle;resizable=0;points=[];autosize=1;strokeColor=none;fillColor=none;" parent="1" vertex="1">
          <mxGeometry x="-1074.5" y="673" width="100" height="30" as="geometry" />
        </mxCell>
        <mxCell id="kKGH1V7Vbg6gXXMReQId-22" value="Mat A&lt;div&gt;3.75 KG(1.5 boxes)&lt;/div&gt;" style="shape=process;whiteSpace=wrap;html=1;backgroundOutline=1;" parent="1" vertex="1">
          <mxGeometry x="-894.5" y="658" width="164.5" height="30" as="geometry" />
        </mxCell>
        <mxCell id="kKGH1V7Vbg6gXXMReQId-23" value="Mat A_2&lt;div&gt;1.25 KG(0.5 boxes)&lt;/div&gt;" style="shape=process;whiteSpace=wrap;html=1;backgroundOutline=1;" parent="1" vertex="1">
          <mxGeometry x="-894.5" y="698" width="174.5" height="30" as="geometry" />
        </mxCell>
        <mxCell id="kKGH1V7Vbg6gXXMReQId-27" value="" style="edgeStyle=orthogonalEdgeStyle;rounded=0;orthogonalLoop=1;jettySize=auto;html=1;entryX=0;entryY=0.5;entryDx=0;entryDy=0;" parent="1" target="kKGH1V7Vbg6gXXMReQId-23" edge="1">
          <mxGeometry relative="1" as="geometry">
            <mxPoint x="-964" y="698" as="sourcePoint" />
            <mxPoint x="-884" y="683" as="targetPoint" />
          </mxGeometry>
        </mxCell>
        <mxCell id="kKGH1V7Vbg6gXXMReQId-28" value="Mat A&lt;div&gt;3.75 KG(1.5 boxes)&lt;/div&gt;" style="shape=process;whiteSpace=wrap;html=1;backgroundOutline=1;" parent="1" vertex="1">
          <mxGeometry x="-1028.5" y="774" width="148.5" height="40" as="geometry" />
        </mxCell>
        <mxCell id="kKGH1V7Vbg6gXXMReQId-29" value="Mat A_2&lt;div&gt;1.25 KG(0.5 boxes)&lt;/div&gt;" style="shape=process;whiteSpace=wrap;html=1;backgroundOutline=1;" parent="1" vertex="1">
          <mxGeometry x="-827" y="777" width="165" height="39" as="geometry" />
        </mxCell>
        <mxCell id="943z2z6Os77FuN8Twxb9-1" value="The question is,&amp;nbsp;&lt;div&gt;although stored by total volume,&amp;nbsp;&lt;/div&gt;&lt;div&gt;there is a requirement for labeling based on how many boxes there are in total and how much each box contains&lt;/div&gt;" style="text;html=1;align=left;verticalAlign=middle;resizable=0;points=[];autosize=1;strokeColor=#d6b656;fillColor=#fff2cc;" vertex="1" parent="1">
          <mxGeometry x="-700" y="260" width="620" height="60" as="geometry" />
        </mxCell>
      </root>
    </mxGraphModel>
  </diagram>
</mxfile>
